<svg xmlns="http://www.w3.org/2000/svg" viewBox="0 0 17 15" fill="none" x="0px" y="0px"><path fill-rule="evenodd" clip-rule="evenodd" d="M5.45529 2.70001C4.84855 2.70001 4.27462 2.97544 3.89503 3.44877L1.94425 5.88134C1.33755 6.63787 1.361 7.72064 1.99988 8.45019L3.89792 10.6176C4.27769 11.0513 4.8261 11.3 5.40255 11.3H11.4955C12.6001 11.3 13.4955 10.4046 13.4955 9.30001V4.70001C13.4955 3.59544 12.6001 2.70001 11.4955 2.70001H5.45529ZM7.02424 5.02871C7.33666 4.71629 7.8432 4.7163 8.15561 5.02873L8.9955 5.86864L9.83538 5.02873C10.1478 4.7163 10.6543 4.71629 10.9668 5.02871C11.2792 5.34112 11.2792 5.84765 10.9668 6.16008L10.1269 7.00003L10.9667 7.83993C11.2791 8.15235 11.2791 8.65888 10.9667 8.9713C10.6543 9.28371 10.1477 9.2837 9.83533 8.97128L8.9955 8.13142L8.15567 8.97128C7.84326 9.2837 7.33673 9.28371 7.0243 8.9713C6.71188 8.65889 6.71187 8.15235 7.02428 7.83993L7.86415 7.00003L7.02422 6.16008C6.71181 5.84765 6.71181 5.34112 7.02424 5.02871Z" fill="black"/><text x="0" y="29" fill="#000000" font-size="1px" font-weight="bold" font-family="'Helvetica Neue', Helvetica, Arial-Unicode, Arial, Sans-serif">Created by Sari Braga</text><text x="0" y="34" fill="#000000" font-size="5px" font-weight="bold" font-family="'Helvetica Neue', Helvetica, Arial-Unicode, Arial, Sans-serif">from the Noun Project</text></svg>